<svg xmlns="http://www.w3.org/2000/svg" width="189" height="37.155" viewBox="0 0 189 37.155">
  <g id="Group_6" data-name="Group 6" transform="translate(-2.07 -1.668)">
    <path id="Path_12" data-name="Path 12" d="M26.258,13.8A5.094,5.094,0,0,0,24.8,17.877l-.025-.025a6.053,6.053,0,0,1-6.54,6.54l.025.025a5.125,5.125,0,1,0,4.627,4.623l.026.025a6.053,6.053,0,0,1,6.54-6.54l-.026-.025a5.115,5.115,0,1,0-3.166-8.7Z" transform="translate(4.165 4.178)" fill="#fff"/>
    <path id="Path_13" data-name="Path 13" d="M19.783,24.94l-.026-.025A5.059,5.059,0,0,0,25.3,19.377l.026.025a6.053,6.053,0,0,1,6.54-6.54l-.026-.025a5.125,5.125,0,1,0-4.623-4.623l-.025-.026a6.051,6.051,0,0,1-6.54,6.54l.025.026a5.059,5.059,0,0,0-5.541,5.537l-.025-.025a6.054,6.054,0,0,1-6.54,6.54l.025.025a5.125,5.125,0,1,0,4.623,4.623l.026.025a6.053,6.053,0,0,1,6.54-6.54Z" transform="translate(0.361 0.371)" fill="#fff"/>
    <path id="Path_14" data-name="Path 14" d="M10.806,22.514a5.089,5.089,0,0,0,1.456-4.081l.026.025a6.053,6.053,0,0,1,6.543-6.54l-.026-.025a5.123,5.123,0,1,0-4.623-4.623l-.025-.025a6.053,6.053,0,0,1-6.54,6.54l.025.025a5.115,5.115,0,1,0,3.167,8.7Z" transform="translate(0 0)" fill="#fff"/>
    <path id="Path_15" data-name="Path 15" d="M39.317,6.655h4.138V26.793H39.317Z" transform="translate(14.65 1.962)" fill="#fff"/>
    <path id="Path_16" data-name="Path 16" d="M43.969,18.231a7.311,7.311,0,1,1,7.311,7.282,7.229,7.229,0,0,1-7.311-7.282Zm10.483,0a3.174,3.174,0,1,0-3.173,3.262,3.095,3.095,0,0,0,3.173-3.262Z" transform="translate(16.48 3.628)" fill="#fff"/>
    <path id="Path_17" data-name="Path 17" d="M70.491,11.32v13.1c0,4.634-3.614,6.593-7.283,6.593a7.053,7.053,0,0,1-6.538-3.344L60.2,25.626a3.152,3.152,0,0,0,3.145,1.737,2.749,2.749,0,0,0,3.117-2.951V23.151a4.9,4.9,0,0,1-4.028,1.793,7.01,7.01,0,0,1,0-14.013,4.9,4.9,0,0,1,4.028,1.793V11.318Zm-4.027,6.62a3.344,3.344,0,1,0-3.337,3.2,3.121,3.121,0,0,0,3.337-3.2Z" transform="translate(21.073 3.641)" fill="#fff"/>
    <path id="Path_18" data-name="Path 18" d="M67.982,18.231a7.311,7.311,0,1,1,7.311,7.282,7.229,7.229,0,0,1-7.311-7.282Zm10.483,0a3.174,3.174,0,1,0-3.173,3.262,3.095,3.095,0,0,0,3.173-3.262Z" transform="translate(25.925 3.628)" fill="#fff"/>
    <path id="Path_19" data-name="Path 19" d="M79.861,9.257a2.483,2.483,0,1,1,2.483,2.483,2.508,2.508,0,0,1-2.483-2.483Zm.418,3.7h4.14V26.747H80.273Z" transform="translate(30.598 2.008)" fill="#fff"/>
    <path id="Path_20" data-name="Path 20" d="M100.145,18.217A6.926,6.926,0,0,1,93.552,25.5a5.176,5.176,0,0,1-4.109-1.683V30.63H85.305V11.32h4.138v1.3a5.179,5.179,0,0,1,4.109-1.682,6.925,6.925,0,0,1,6.593,7.283Zm-4.138,0a3.283,3.283,0,1,0-3.281,3.365,3.149,3.149,0,0,0,3.281-3.365Z" transform="translate(32.739 3.642)" fill="#fff"/>
    <path id="Path_21" data-name="Path 21" d="M108.415,20.973c0,3.173-2.757,4.524-5.736,4.524a6.04,6.04,0,0,1-5.931-3.283l3.585-2.041a2.267,2.267,0,0,0,2.341,1.627c.992,0,1.489-.3,1.489-.854,0-1.519-6.787-.718-6.787-5.49,0-3.008,2.539-4.524,5.408-4.524a6.033,6.033,0,0,1,5.378,2.951l-3.531,1.9a2,2,0,0,0-1.848-1.214c-.718,0-1.159.279-1.159.772C101.629,16.919,108.415,15.869,108.415,20.973Z" transform="translate(37.24 3.643)" fill="#fff"/>
    <path id="Path_22" data-name="Path 22" d="M119.707,11.209V25h-4.138v-1.3a4.714,4.714,0,0,1-3.943,1.683c-2.787,0-5.155-1.985-5.155-5.713V11.209h4.138V19.07a2.274,2.274,0,0,0,2.4,2.508c1.517,0,2.565-.882,2.565-2.841V11.213Z" transform="translate(41.064 3.753)" fill="#fff"/>
    <path id="Path_23" data-name="Path 23" d="M138.841,16.646v8.469H134.7V17c0-1.379-.662-2.261-1.986-2.261-1.379,0-2.153.966-2.153,2.593v7.779h-4.137V17c0-1.379-.662-2.261-1.987-2.261-1.379,0-2.151.966-2.151,2.593v7.779h-4.138V11.321h4.138v1.268a4.233,4.233,0,0,1,3.7-1.654,4.1,4.1,0,0,1,3.613,1.82,4.544,4.544,0,0,1,4-1.82C136.766,10.936,138.841,13.2,138.841,16.646Z" transform="translate(45.659 3.64)" fill="#fff"/>
    <path id="Path_24" data-name="Path 24" d="M136.379,12.882a3.071,3.071,0,1,0-3.071-3.071A3.071,3.071,0,0,0,136.379,12.882Z" transform="translate(51.62 1.995)" fill="#fff"/>
  </g>
</svg>
